<svg width="512" height="512" viewBox="0 0 512 512" fill="none" xmlns="http://www.w3.org/2000/svg">
    <!-- Background Circle -->
    <rect width="512" height="512" fill="#0a0c10"/>

    <g fill="#252a38">
        <path d="M256 256 L 90 44 H 422 Z" />
        <path d="M256 256 L 90 468 H 422 Z" />
        <path d="M256 256 L 44 90 V 422 Z" />
        <path d="M256 256 L 468 90 V 422 Z" />
    </g>


    <path d="M256,182.4
             c-40.6,0 -73.6,33 -73.6,73.6
             s33,73.6 73.6,73.6
             s73.6,-33 73.6,-73.6
             S296.6,182.4 256,182.4z
             M256,300.8
             c-24.7,0 -44.8,-20.1 -44.8,-44.8
             s20.1,-44.8 44.8,-44.8
             s44.8,20.1 44.8,44.8
             S280.7,300.8 256,300.8z"
          fill="#e8f03c">
        

        <animateTransform 
            attributeName="transform"
            attributeType="XML"
            type="rotate"
            from="0 256 256"
            to="360 256 256"
            dur="20s"
            repeatCount="indefinite"
        />
    </path>
</svg>
